# xmcd
#
# Track frame offsets:
#	150
#	18645
#	34534
#	52420
#	71545
#	92024
#	116094
#	134535
#	152374
#
# Disc length: 2239 seconds
#
# Revision: 0
# Processed by: cddbd v1.5.2PL0 Copyright (c) Steve Scherf et al.
# Submitted via: EasyCDDAExtractor 15.3.0.1
#
DISCID=7808bd09
DTITLE=Iron Country Sisters - The Blue Hidden In
DYEAR=2019
DGENRE=
TTITLE0=Bones
TTITLE1=Go Slow
TTITLE2=Woodstock
TTITLE3=Old Blue Eyes
TTITLE4=Giant On The Hill
TTITLE5=Riverside
TTITLE6=Bonfire
TTITLE7=Leaves
TTITLE8=Starlight (Take Me Home)
EXTD=
EXTT0=
EXTT1=
EXTT2=
EXTT3=
EXTT4=
EXTT5=
EXTT6=
EXTT7=
EXTT8=
PLAYORDER=
